<svg width="540" height="110" viewBox="0 0 540 110" fill="none" xmlns="http://www.w3.org/2000/svg">
<path d="M132.239 59.2955V82H121.347V29.6364H131.932V49.6562H132.392C133.278 47.3381 134.71 45.5227 136.688 44.2102C138.665 42.8807 141.145 42.2159 144.128 42.2159C146.855 42.2159 149.233 42.8125 151.261 44.0057C153.307 45.1818 154.892 46.8778 156.017 49.0938C157.159 51.2926 157.722 53.9261 157.705 56.9943V82H146.812V58.9375C146.83 56.517 146.216 54.6335 144.972 53.2869C143.744 51.9403 142.023 51.267 139.807 51.267C138.324 51.267 137.011 51.5824 135.869 52.2131C134.744 52.8437 133.858 53.7642 133.21 54.9744C132.58 56.1676 132.256 57.608 132.239 59.2955ZM184.174 82.767C180.134 82.767 176.657 81.9489 173.742 80.3125C170.844 78.6591 168.612 76.3239 167.043 73.3068C165.475 70.2727 164.691 66.6847 164.691 62.5426C164.691 58.5028 165.475 54.9574 167.043 51.9062C168.612 48.8551 170.819 46.4773 173.665 44.7727C176.529 43.0682 179.887 42.2159 183.739 42.2159C186.33 42.2159 188.742 42.6335 190.975 43.4688C193.225 44.2869 195.185 45.5227 196.856 47.1761C198.543 48.8295 199.856 50.9091 200.793 53.4148C201.731 55.9034 202.2 58.8182 202.2 62.1591V65.1506H169.038V58.4006H191.947C191.947 56.8324 191.606 55.4432 190.924 54.233C190.242 53.0227 189.296 52.0767 188.086 51.3949C186.893 50.696 185.504 50.3466 183.918 50.3466C182.265 50.3466 180.799 50.7301 179.521 51.4972C178.259 52.2472 177.271 53.2614 176.555 54.5398C175.839 55.8011 175.472 57.2074 175.455 58.7585V65.1761C175.455 67.1193 175.813 68.7983 176.529 70.2131C177.262 71.6278 178.293 72.7188 179.623 73.4858C180.952 74.2528 182.529 74.6364 184.353 74.6364C185.563 74.6364 186.671 74.4659 187.677 74.125C188.683 73.7841 189.543 73.2727 190.259 72.5909C190.975 71.9091 191.521 71.0739 191.896 70.0852L201.969 70.75C201.458 73.1705 200.41 75.2841 198.825 77.0909C197.256 78.8807 195.228 80.2784 192.739 81.2841C190.268 82.2727 187.413 82.767 184.174 82.767ZM220.2 29.6364V82H209.308V29.6364H220.2ZM239.817 29.6364V82H228.925V29.6364H239.817ZM266.286 82.767C262.315 82.767 258.88 81.9233 255.982 80.2358C253.102 78.5312 250.877 76.1619 249.309 73.1278C247.741 70.0767 246.957 66.5398 246.957 62.517C246.957 58.4602 247.741 54.9148 249.309 51.8807C250.877 48.8295 253.102 46.4602 255.982 44.7727C258.88 43.0682 262.315 42.2159 266.286 42.2159C270.258 42.2159 273.684 43.0682 276.565 44.7727C279.462 46.4602 281.695 48.8295 283.263 51.8807C284.832 54.9148 285.616 58.4602 285.616 62.517C285.616 66.5398 284.832 70.0767 283.263 73.1278C281.695 76.1619 279.462 78.5312 276.565 80.2358C273.684 81.9233 270.258 82.767 266.286 82.767ZM266.337 74.3295C268.144 74.3295 269.653 73.8182 270.863 72.7955C272.073 71.7557 272.985 70.3409 273.599 68.5511C274.229 66.7614 274.545 64.7244 274.545 62.4403C274.545 60.1562 274.229 58.1193 273.599 56.3295C272.985 54.5398 272.073 53.125 270.863 52.0852C269.653 51.0455 268.144 50.5256 266.337 50.5256C264.513 50.5256 262.979 51.0455 261.735 52.0852C260.508 53.125 259.579 54.5398 258.948 56.3295C258.335 58.1193 258.028 60.1562 258.028 62.4403C258.028 64.7244 258.335 66.7614 258.948 68.5511C259.579 70.3409 260.508 71.7557 261.735 72.7955C262.979 73.8182 264.513 74.3295 266.337 74.3295ZM292.903 82V29.6364H313.562C317.533 29.6364 320.917 30.3949 323.712 31.9119C326.508 33.4119 328.638 35.5 330.104 38.1761C331.587 40.8352 332.329 43.9034 332.329 47.3807C332.329 50.858 331.579 53.9261 330.079 56.5852C328.579 59.2443 326.406 61.3153 323.559 62.7983C320.729 64.2812 317.303 65.0227 313.281 65.0227H300.113V56.1506H311.491C313.621 56.1506 315.377 55.7841 316.758 55.0511C318.156 54.3011 319.195 53.2699 319.877 51.9574C320.576 50.6278 320.925 49.1023 320.925 47.3807C320.925 45.642 320.576 44.125 319.877 42.8295C319.195 41.517 318.156 40.5028 316.758 39.7869C315.36 39.054 313.587 38.6875 311.44 38.6875H303.974V82H292.903ZM346.04 96.7273C344.659 96.7273 343.364 96.6165 342.153 96.3949C340.96 96.1903 339.972 95.9261 339.188 95.6023L341.642 87.4716C342.92 87.8636 344.071 88.0767 345.094 88.1108C346.134 88.1449 347.028 87.9063 347.778 87.3949C348.545 86.8835 349.168 86.0142 349.645 84.7869L350.284 83.125L336.196 42.7273H347.651L355.781 71.5682H356.19L364.398 42.7273H375.929L360.665 86.2443C359.932 88.358 358.935 90.1989 357.673 91.767C356.429 93.3523 354.852 94.571 352.943 95.4233C351.034 96.2926 348.733 96.7273 346.04 96.7273ZM402.392 42.7273V50.9091H378.741V42.7273H402.392ZM384.111 33.3182H395.003V69.9318C395.003 70.9375 395.156 71.7216 395.463 72.2841C395.77 72.8295 396.196 73.2131 396.741 73.4347C397.304 73.6562 397.952 73.767 398.685 73.767C399.196 73.767 399.707 73.7244 400.219 73.6392C400.73 73.5369 401.122 73.4602 401.395 73.4091L403.108 81.5142C402.563 81.6847 401.795 81.8807 400.807 82.1023C399.818 82.3409 398.616 82.4858 397.202 82.5369C394.577 82.6392 392.276 82.2898 390.298 81.4886C388.338 80.6875 386.813 79.4432 385.722 77.7557C384.631 76.0682 384.094 73.9375 384.111 71.3636V33.3182ZM421.223 59.2955V82H410.331V29.6364H420.916V49.6562H421.376C422.263 47.3381 423.695 45.5227 425.672 44.2102C427.649 42.8807 430.129 42.2159 433.112 42.2159C435.839 42.2159 438.217 42.8125 440.246 44.0057C442.291 45.1818 443.876 46.8778 445.001 49.0938C446.143 51.2926 446.706 53.9261 446.689 56.9943V82H435.797V58.9375C435.814 56.517 435.2 54.6335 433.956 53.2869C432.729 51.9403 431.007 51.267 428.791 51.267C427.308 51.267 425.996 51.5824 424.854 52.2131C423.729 52.8437 422.842 53.7642 422.195 54.9744C421.564 56.1676 421.24 57.608 421.223 59.2955ZM473.005 82.767C469.033 82.767 465.599 81.9233 462.701 80.2358C459.82 78.5312 457.596 76.1619 456.028 73.1278C454.46 70.0767 453.675 66.5398 453.675 62.517C453.675 58.4602 454.46 54.9148 456.028 51.8807C457.596 48.8295 459.82 46.4602 462.701 44.7727C465.599 43.0682 469.033 42.2159 473.005 42.2159C476.977 42.2159 480.403 43.0682 483.283 44.7727C486.181 46.4602 488.414 48.8295 489.982 51.8807C491.55 54.9148 492.335 58.4602 492.335 62.517C492.335 66.5398 491.55 70.0767 489.982 73.1278C488.414 76.1619 486.181 78.5312 483.283 80.2358C480.403 81.9233 476.977 82.767 473.005 82.767ZM473.056 74.3295C474.863 74.3295 476.371 73.8182 477.582 72.7955C478.792 71.7557 479.704 70.3409 480.317 68.5511C480.948 66.7614 481.263 64.7244 481.263 62.4403C481.263 60.1562 480.948 58.1193 480.317 56.3295C479.704 54.5398 478.792 53.125 477.582 52.0852C476.371 51.0455 474.863 50.5256 473.056 50.5256C471.232 50.5256 469.698 51.0455 468.454 52.0852C467.227 53.125 466.298 54.5398 465.667 56.3295C465.053 58.1193 464.746 60.1562 464.746 62.4403C464.746 64.7244 465.053 66.7614 465.667 68.5511C466.298 70.3409 467.227 71.7557 468.454 72.7955C469.698 73.8182 471.232 74.3295 473.056 74.3295ZM510.309 59.2955V82H499.417V42.7273H509.798V49.6562H510.258C511.127 47.3722 512.585 45.5653 514.63 44.2358C516.675 42.8892 519.156 42.2159 522.07 42.2159C524.798 42.2159 527.175 42.8125 529.204 44.0057C531.232 45.1989 532.809 46.9034 533.934 49.1193C535.059 51.3182 535.621 53.9432 535.621 56.9943V82H524.729V58.9375C524.746 56.5341 524.133 54.6591 522.888 53.3125C521.644 51.9489 519.931 51.267 517.749 51.267C516.283 51.267 514.988 51.5824 513.863 52.2131C512.755 52.8437 511.886 53.7642 511.255 54.9744C510.641 56.1676 510.326 57.608 510.309 59.2955Z" fill="#414040"/>
<path d="M39.6407 51.0513H64.8705C71.8871 51.0513 77.4859 45.2632 77.4859 38.2234V14.1509C77.4859 7.30028 71.7216 2.17382 64.8705 1.01624C56.4135 -0.377649 47.224 -0.306802 39.6407 1.03954C28.9627 2.9296 27.0258 6.87496 27.0258 14.1746V19.3268H52.2792V27.0021H17.5526C10.2059 27.0021 3.77967 31.4196 1.77193 39.8063C-0.543217 49.4211 -0.6376 55.4215 1.77193 65.4617C3.56737 72.9271 7.84319 78.2656 15.1902 78.2656H23.8602V66.7376C23.86 58.3985 31.0653 51.0513 39.6407 51.0513Z" fill="#347AB4"/>
<path d="M107.119 43.6351C105.299 36.3355 101.851 30.831 94.5037 30.831H85.0311V42.0287C85.0311 50.7223 77.6601 58.0453 69.2501 58.0453H44.02C37.1217 58.0453 31.4049 63.9518 31.4049 70.8732V94.9224C31.4049 101.773 37.358 105.789 44.02 107.75C52.0047 110.089 59.6821 110.514 69.2499 107.75C75.605 105.907 81.8653 102.199 81.8653 94.9224V89.8797H56.659V82.0945H94.5035C101.851 82.0945 104.567 76.968 107.118 69.2905C109.764 61.3763 109.647 53.7694 107.119 43.6351Z" fill="#FFCA1D"/>
<path d="M38.0581 14.8692C35.5414 14.8692 33.501 12.806 33.501 10.2667C33.5236 7.70471 35.5414 5.64149 38.0581 5.64149C40.5521 5.64149 42.6153 7.72728 42.6153 10.2667C42.6151 12.806 40.5747 14.8692 38.0581 14.8692Z" fill="white"/>
<path d="M68.6769 103.844C66.1602 103.844 64.1196 101.781 64.1196 99.2419C64.1424 96.6799 66.16 94.6167 68.6769 94.6167C71.1709 94.6167 73.2341 96.7025 73.2341 99.2419C73.2341 101.781 71.1937 103.844 68.6769 103.844Z" fill="white"/>
</svg>
